<svg data-v-423bf9ae="" xmlns="http://www.w3.org/2000/svg" viewBox="0 0 239.18045163712492 163" class="iconAbove"><!----><!----><!----><g data-v-423bf9ae="" id="19f6964f-d4b4-4a31-8108-ade38e5f66b5" fill="white" transform="matrix(4.313443613096999,0,0,4.313443613096999,-2.7174730347511513,91.8713119926021)"><path d="M8.95 7.20C8.95 4.94 7.84 3.14 5.29 3.14L1.88 3.14L1.88 4.05L0.63 13.27L3.85 13.27C7.34 13.27 8.95 10.22 8.95 7.20ZM7.63 7.25C7.63 9.38 6.55 12.31 3.93 12.31L2.03 12.31L3.12 4.10L5.17 4.10C7.04 4.10 7.63 5.66 7.63 7.25ZM16.09 13.10L15.93 12.40C15.76 12.46 15.55 12.52 15.37 12.52C15.02 12.52 14.91 12.29 14.91 11.96C14.91 11.86 14.92 11.76 14.94 11.66L15.72 6.34L15.11 6.34L14.81 6.89C14.43 6.41 13.80 6.23 13.29 6.23C11.06 6.23 9.60 8.76 9.60 10.78C9.60 12.25 10.30 13.45 11.80 13.45C12.63 13.45 13.37 13.01 13.87 12.24L13.93 12.24C13.94 12.91 14.36 13.43 15.04 13.43C15.39 13.43 15.78 13.27 16.09 13.10ZM14.43 7.63L14.24 8.97C13.97 10.79 13.31 12.59 12.03 12.59C11.13 12.59 10.91 11.58 10.91 10.84C10.91 9.46 11.65 7.10 13.33 7.10C13.76 7.10 14.14 7.29 14.43 7.63ZM19.63 3.92C19.63 3.54 19.33 3.21 18.91 3.21C18.41 3.21 17.99 3.68 17.99 4.14C17.99 4.54 18.28 4.84 18.70 4.84C19.21 4.84 19.63 4.40 19.63 3.92ZM18.24 12.46L19.05 6.41L17.82 6.41L17.82 7.21L17.01 13.27L18.24 13.27ZM21.42 12.46L22.75 2.58L21.52 2.58L21.52 3.37L20.17 13.27L21.42 13.27ZM25.51 13.99L28.98 6.41L27.92 6.41L25.51 11.62L24.49 6.41L23.30 6.41L24.75 13.23L24.56 13.69C24.02 14.94 23.13 15.57 22.09 15.57C21.64 15.57 21.46 15.46 21.07 15.27L20.54 16.11C20.92 16.34 21.48 16.49 22.02 16.49C23.70 16.49 24.84 15.44 25.51 13.99ZM36.20 13.27L37.58 3.14L36.32 3.14L35.73 7.53L31.05 7.53L31.64 3.14L30.25 3.14L30.25 4.05L29.01 13.27L30.27 13.27L30.91 8.48L35.59 8.48L34.94 13.27ZM44.56 13.12L44.41 12.39C44.41 12.39 44.11 12.53 43.83 12.53C43.61 12.53 43.44 12.39 43.44 11.94C43.44 11.84 43.46 11.72 43.47 11.58L44.18 6.41L42.95 6.41L42.95 7.22L42.64 9.37C42.28 11.94 41.20 12.59 40.45 12.59C39.83 12.59 39.51 12.25 39.51 11.45C39.51 11.28 39.52 11.09 39.55 10.88L40.15 6.41L38.93 6.41L38.93 7.21L38.40 11.05C38.37 11.24 38.36 11.42 38.36 11.61C38.36 12.71 38.91 13.45 40.15 13.45C41.59 13.45 42.15 12.54 42.35 12.25L42.41 12.25C42.41 13.08 43.04 13.44 43.51 13.44C43.95 13.44 44.56 13.12 44.56 13.12ZM50.75 12.46L51.25 8.67C51.28 8.44 51.30 8.23 51.30 8.05C51.30 6.55 50.40 6.23 49.56 6.23C48.65 6.23 47.91 6.79 47.36 7.28C47.35 6.87 47.28 6.41 47.24 6.27L46.00 6.41C46.00 6.41 46.23 6.82 46.23 7.64C46.23 7.85 46.21 8.11 46.17 8.37L45.51 13.27L46.63 13.27L47.32 8.16C47.53 7.98 48.43 7.24 49.25 7.24C49.99 7.24 50.16 7.73 50.16 8.27C50.16 8.53 50.12 8.79 50.09 9.03L49.52 13.27L50.75 13.27ZM55.96 7.29L56.08 6.41L54.50 6.41L54.92 4.44L53.68 4.44L53.40 6.41L52.43 6.41L52.30 7.29L53.27 7.29L52.70 11.65C52.70 11.65 52.65 11.98 52.65 12.14C52.65 13.27 53.31 13.45 53.98 13.45C54.59 13.45 55.33 13.17 55.33 13.17L55.23 12.43C54.84 12.53 54.53 12.59 54.32 12.59C53.91 12.59 53.77 12.38 53.77 12.03C53.77 11.94 53.80 11.73 53.80 11.73L54.38 7.29Z"></path></g><!----><g data-v-423bf9ae="" id="ae1d50d8-50a1-4cab-8d3d-ac429c2af284" transform="matrix(1,0,0,1,70,-5)" stroke="none" fill="white"><path d="M51.9 27.9h20.6v1.4H51.9zM51.9 37.3h20.6v1.4H51.9zM51.9 45.8h20.6v1.4H51.9zM27.5 54.2h45v1.4h-45zM27.5 62.7h45v1.4h-45zM27.5 71.1H50v1.4H27.5zM27 28h20v19H27z"></path><path d="M50 7c23.7 0 43 19.3 43 43S73.7 93 50 93 7 73.7 7 50 26.3 7 50 7m0-2C25.2 5 5 25.1 5 50s20.2 45 45 45 45-20.1 45-45S74.8 5 50 5z"></path></g><!----></svg>