<svg data-v-423bf9ae="" xmlns="http://www.w3.org/2000/svg" viewBox="0 0 156.94600449432542 163" class="iconAbove"><!----><!----><!----><g data-v-423bf9ae="" id="594ea4cd-dbd5-46e7-b474-eca3cfe6656d" fill="#000000" transform="matrix(4.261363370821266,0,0,4.261363370821266,-2.3863618210895226,91.1107949274553)"><path d="M6.36 4.31L6.38 6.03L6.38 6.03Q6.38 6.08 6.31 6.08L6.31 6.08L6.31 6.08Q6.24 6.09 6.23 6.05L6.23 6.05L6.23 6.05Q6.19 5.31 5.78 4.89L5.78 4.89L5.78 4.89Q5.38 4.48 4.70 4.48L4.70 4.48L3.85 4.48L3.85 4.48Q3.37 4.48 3.14 4.55L3.14 4.55L3.14 4.55Q2.90 4.62 2.81 4.80L2.81 4.80L2.81 4.80Q2.72 4.98 2.72 5.33L2.72 5.33L2.72 8.40L4.13 8.40L4.13 8.40Q4.87 8.40 5.19 8.17L5.19 8.17L5.19 8.17Q5.50 7.94 5.50 7.42L5.50 7.42L5.50 7.42Q5.50 7.39 5.59 7.39L5.59 7.39L5.59 7.39Q5.67 7.39 5.67 7.42L5.67 7.42L5.66 8.55L5.66 8.55Q5.66 8.96 5.67 9.17L5.67 9.17L5.68 9.84L5.68 9.84Q5.68 9.87 5.60 9.87L5.60 9.87L5.60 9.87Q5.52 9.87 5.52 9.84L5.52 9.84L5.52 9.84Q5.52 9.23 5.19 8.96L5.19 8.96L5.19 8.96Q4.86 8.69 4.09 8.69L4.09 8.69L2.72 8.69L2.72 11.75L2.72 11.75Q2.72 12.19 2.83 12.40L2.83 12.40L2.83 12.40Q2.95 12.60 3.30 12.68L3.30 12.68L3.30 12.68Q3.65 12.77 4.41 12.77L4.41 12.77L4.41 12.77Q4.45 12.77 4.45 12.85L4.45 12.85L4.45 12.85Q4.45 12.94 4.41 12.94L4.41 12.94L4.41 12.94Q3.84 12.94 3.51 12.92L3.51 12.92L2.25 12.91L1.30 12.92L1.30 12.92Q1.05 12.94 0.59 12.94L0.59 12.94L0.59 12.94Q0.56 12.94 0.56 12.85L0.56 12.85L0.56 12.85Q0.56 12.77 0.59 12.77L0.59 12.77L0.59 12.77Q1.12 12.77 1.37 12.70L1.37 12.70L1.37 12.70Q1.62 12.63 1.72 12.43L1.72 12.43L1.72 12.43Q1.81 12.22 1.81 11.80L1.81 11.80L1.81 5.32L1.81 5.32Q1.81 4.90 1.72 4.70L1.72 4.70L1.72 4.70Q1.62 4.51 1.38 4.43L1.38 4.43L1.38 4.43Q1.13 4.35 0.60 4.35L0.60 4.35L0.60 4.35Q0.57 4.35 0.57 4.27L0.57 4.27L0.57 4.27Q0.57 4.19 0.60 4.19L0.60 4.19L6.23 4.19L6.23 4.19Q6.36 4.19 6.36 4.31L6.36 4.31ZM10.36 13.12L10.36 13.12Q9.55 13.12 8.93 12.72L8.93 12.72L8.93 12.72Q8.30 12.32 7.97 11.64L7.97 11.64L7.97 11.64Q7.63 10.96 7.63 10.16L7.63 10.16L7.63 10.16Q7.63 9.25 8.07 8.62L8.07 8.62L8.07 8.62Q8.51 7.98 9.21 7.67L9.21 7.67L9.21 7.67Q9.90 7.35 10.61 7.35L10.61 7.35L10.61 7.35Q11.44 7.35 12.05 7.76L12.05 7.76L12.05 7.76Q12.67 8.16 13.00 8.83L13.00 8.83L13.00 8.83Q13.33 9.49 13.33 10.23L13.33 10.23L13.33 10.23Q13.33 11.10 12.92 11.75L12.92 11.75L12.92 11.75Q12.52 12.40 11.84 12.76L11.84 12.76L11.84 12.76Q11.16 13.12 10.36 13.12L10.36 13.12ZM10.77 12.85L10.77 12.85Q11.54 12.85 11.96 12.31L11.96 12.31L11.96 12.31Q12.38 11.76 12.38 10.63L12.38 10.63L12.38 10.63Q12.38 9.76 12.09 9.07L12.09 9.07L12.09 9.07Q11.80 8.39 11.30 8.00L11.30 8.00L11.30 8.00Q10.79 7.62 10.15 7.62L10.15 7.62L10.15 7.62Q9.39 7.62 8.98 8.16L8.98 8.16L8.98 8.16Q8.57 8.71 8.57 9.73L8.57 9.73L8.57 9.73Q8.57 10.58 8.85 11.30L8.85 11.30L8.85 11.30Q9.13 12.01 9.63 12.43L9.63 12.43L9.63 12.43Q10.14 12.85 10.77 12.85L10.77 12.85ZM17.07 13.12L17.07 13.12Q16.25 13.12 15.63 12.72L15.63 12.72L15.63 12.72Q15.01 12.32 14.67 11.64L14.67 11.64L14.67 11.64Q14.34 10.96 14.34 10.16L14.34 10.16L14.34 10.16Q14.34 9.25 14.78 8.62L14.78 8.62L14.78 8.62Q15.22 7.98 15.91 7.67L15.91 7.67L15.91 7.67Q16.60 7.35 17.32 7.35L17.32 7.35L17.32 7.35Q18.14 7.35 18.76 7.76L18.76 7.76L18.76 7.76Q19.38 8.16 19.71 8.83L19.71 8.83L19.71 8.83Q20.03 9.49 20.03 10.23L20.03 10.23L20.03 10.23Q20.03 11.10 19.63 11.75L19.63 11.75L19.63 11.75Q19.22 12.40 18.54 12.76L18.54 12.76L18.54 12.76Q17.86 13.12 17.07 13.12L17.07 13.12ZM17.47 12.85L17.47 12.85Q18.24 12.85 18.66 12.31L18.66 12.31L18.66 12.31Q19.08 11.76 19.08 10.63L19.08 10.63L19.08 10.63Q19.08 9.76 18.80 9.07L18.80 9.07L18.80 9.07Q18.51 8.39 18.00 8.00L18.00 8.00L18.00 8.00Q17.50 7.62 16.86 7.62L16.86 7.62L16.86 7.62Q16.10 7.62 15.69 8.16L15.69 8.16L15.69 8.16Q15.27 8.71 15.27 9.73L15.27 9.73L15.27 9.73Q15.27 10.58 15.55 11.30L15.55 11.30L15.55 11.30Q15.83 12.01 16.34 12.43L16.34 12.43L16.34 12.43Q16.84 12.85 17.47 12.85L17.47 12.85ZM27.59 12.15L27.62 12.14L27.62 12.14Q27.68 12.14 27.70 12.21L27.70 12.21L27.70 12.21Q27.72 12.28 27.68 12.31L27.68 12.31L26.14 13.03L26.14 13.03Q26.05 13.06 26.03 13.06L26.03 13.06L26.03 13.06Q25.84 13.06 25.72 12.75L25.72 12.75L25.72 12.75Q25.59 12.45 25.58 11.90L25.58 11.90L25.58 11.90Q25.06 12.45 24.49 12.78L24.49 12.78L24.49 12.78Q23.93 13.12 23.23 13.12L23.23 13.12L23.23 13.12Q22.64 13.12 22.14 12.78L22.14 12.78L22.14 12.78Q21.64 12.45 21.34 11.84L21.34 11.84L21.34 11.84Q21.04 11.23 21.04 10.44L21.04 10.44L21.04 10.44Q21.04 9.45 21.53 8.75L21.53 8.75L21.53 8.75Q22.02 8.05 22.76 7.70L22.76 7.70L22.76 7.70Q23.51 7.35 24.23 7.35L24.23 7.35L24.23 7.35Q24.98 7.35 25.58 7.71L25.58 7.71L25.58 4.58L25.58 4.58Q25.58 4.07 25.47 3.85L25.47 3.85L25.47 3.85Q25.37 3.63 25.12 3.63L25.12 3.63L25.12 3.63Q24.93 3.63 24.47 3.82L24.47 3.82L24.44 3.82L24.44 3.82Q24.39 3.82 24.37 3.76L24.37 3.76L24.37 3.76Q24.35 3.70 24.39 3.67L24.39 3.67L26.17 2.80L26.17 2.80Q26.19 2.79 26.24 2.79L26.24 2.79L26.24 2.79Q26.26 2.79 26.31 2.82L26.31 2.82L26.31 2.82Q26.36 2.86 26.36 2.90L26.36 2.90L26.36 11.40L26.36 11.40Q26.36 11.90 26.48 12.12L26.48 12.12L26.48 12.12Q26.60 12.35 26.87 12.35L26.87 12.35L26.87 12.35Q27.27 12.35 27.59 12.15L27.59 12.15ZM23.77 12.61L23.77 12.61Q24.28 12.61 24.71 12.37L24.71 12.37L24.71 12.37Q25.14 12.12 25.58 11.68L25.58 11.68L25.58 8.60L25.58 8.60Q25.24 8.13 24.84 7.88L24.84 7.88L24.84 7.88Q24.43 7.63 23.86 7.63L23.86 7.63L23.86 7.63Q22.97 7.63 22.46 8.25L22.46 8.25L22.46 8.25Q21.95 8.88 21.95 10.02L21.95 10.02L21.95 10.02Q21.95 10.79 22.19 11.38L22.19 11.38L22.19 11.38Q22.43 11.97 22.84 12.29L22.84 12.29L22.84 12.29Q23.25 12.61 23.77 12.61L23.77 12.61ZM28.27 12.94L28.27 12.94Q28.22 12.94 28.22 12.85L28.22 12.85L28.22 12.85Q28.22 12.77 28.27 12.77L28.27 12.77L28.27 12.77Q28.64 12.77 28.83 12.69L28.83 12.69L28.83 12.69Q29.01 12.61 29.08 12.41L29.08 12.41L29.08 12.41Q29.15 12.21 29.15 11.80L29.15 11.80L29.15 4.56L29.15 4.56Q29.15 4.06 29.05 3.84L29.05 3.84L29.05 3.84Q28.95 3.61 28.70 3.61L28.70 3.61L28.70 3.61Q28.49 3.61 28.06 3.81L28.06 3.81L28.03 3.81L28.03 3.81Q27.99 3.81 27.96 3.74L27.96 3.74L27.96 3.74Q27.94 3.67 27.99 3.65L27.99 3.65L29.78 2.80L29.78 2.80Q29.81 2.79 29.85 2.79L29.85 2.79L29.85 2.79Q29.88 2.79 29.93 2.82L29.93 2.82L29.93 2.82Q29.97 2.86 29.97 2.90L29.97 2.90L29.97 11.80L29.97 11.80Q29.97 12.21 30.04 12.40L30.04 12.40L30.04 12.40Q30.10 12.60 30.28 12.68L30.28 12.68L30.28 12.68Q30.46 12.77 30.84 12.77L30.84 12.77L30.84 12.77Q30.88 12.77 30.88 12.85L30.88 12.85L30.88 12.85Q30.88 12.94 30.84 12.94L30.84 12.94L30.84 12.94Q30.53 12.94 30.34 12.92L30.34 12.92L29.55 12.91L28.80 12.92L28.80 12.92Q28.60 12.94 28.27 12.94L28.27 12.94ZM37.35 7.53L37.35 7.53Q37.39 7.53 37.39 7.62L37.39 7.62L37.39 7.62Q37.39 7.70 37.35 7.70L37.35 7.70L37.35 7.70Q37.00 7.70 36.75 7.95L36.75 7.95L36.75 7.95Q36.50 8.20 36.27 8.78L36.27 8.78L34.57 13.33L34.57 13.33Q34.05 14.69 33.59 15.45L33.59 15.45L33.59 15.45Q33.14 16.21 32.66 16.54L32.66 16.54L32.66 16.54Q32.17 16.87 31.54 16.87L31.54 16.87L31.54 16.87Q31.23 16.87 31.03 16.73L31.03 16.73L31.03 16.73Q30.83 16.59 30.83 16.32L30.83 16.32L30.83 16.32Q30.83 16.13 30.95 16.02L30.95 16.02L30.95 16.02Q31.08 15.90 31.26 15.90L31.26 15.90L31.26 15.90Q31.44 15.90 31.57 15.95L31.57 15.95L31.57 15.95Q31.70 15.99 31.84 16.09L31.84 16.09L31.84 16.09Q31.86 16.10 32.00 16.17L32.00 16.17L32.00 16.17Q32.13 16.24 32.33 16.24L32.33 16.24L32.33 16.24Q32.66 16.24 32.96 15.95L32.96 15.95L32.96 15.95Q33.26 15.65 33.61 14.96L33.61 14.96L33.61 14.96Q33.95 14.27 34.41 13.05L34.41 13.05L32.28 8.69L32.28 8.69Q31.96 8.08 31.79 7.89L31.79 7.89L31.79 7.89Q31.63 7.70 31.36 7.70L31.36 7.70L31.36 7.70Q31.33 7.70 31.33 7.62L31.33 7.62L31.33 7.62Q31.33 7.53 31.36 7.53L31.36 7.53L31.84 7.55L31.84 7.55Q32.00 7.56 32.30 7.56L32.30 7.56L33.19 7.55L33.19 7.55Q33.39 7.53 33.74 7.53L33.74 7.53L33.74 7.53Q33.77 7.53 33.77 7.62L33.77 7.62L33.77 7.62Q33.77 7.70 33.74 7.70L33.74 7.70L33.74 7.70Q32.93 7.70 32.93 8.02L32.93 8.02L32.93 8.02Q32.93 8.11 33.00 8.25L33.00 8.25L34.85 12.04L35.97 8.82L35.97 8.82Q36.08 8.48 36.08 8.29L36.08 8.29L36.08 8.29Q36.08 7.97 35.83 7.83L35.83 7.83L35.83 7.83Q35.57 7.70 35 7.70L35 7.70L35 7.70Q34.97 7.70 34.97 7.62L34.97 7.62L34.97 7.62Q34.97 7.53 35 7.53L35 7.53L35 7.53Q35.38 7.53 35.57 7.55L35.57 7.55L36.41 7.56L36.92 7.55L36.92 7.55Q37.06 7.53 37.35 7.53L37.35 7.53Z"></path></g><defs data-v-423bf9ae=""><linearGradient data-v-423bf9ae="" gradientTransform="rotate(25)" id="11a0380e-1c59-4ec8-9169-bf759b7618f6" x1="0%" y1="0%" x2="100%" y2="0%"><stop data-v-423bf9ae="" offset="0%" style="stop-color: rgb(180, 55, 61); stop-opacity: 1;"></stop><stop data-v-423bf9ae="" offset="100%" style="stop-color: rgb(178, 58, 203); stop-opacity: 1;"></stop></linearGradient></defs><g data-v-423bf9ae="" id="bc37142f-dfd6-42e1-94b1-0843630bbd21" transform="matrix(2.8141986960288694,0,0,2.8141986960288694,33.97282086353809,-0.03504220790252788)" stroke="none" fill="url(#11a0380e-1c59-4ec8-9169-bf759b7618f6)"><path d="M29.5 21h-2.691c-.045-.239-.1-.473-.16-.706l4.799-2.399a1.001 1.001 0 0 0-.895-1.789l-4.578 2.288C24.229 14.626 20.42 12 16 12c-5.382 0-9.865 3.888-10.809 9H2.5A2.503 2.503 0 0 0 0 23.5c0 .49.18.963.505 1.329L4 28.761v.739C4 30.879 5.122 32 6.5 32h19c1.379 0 2.5-1.121 2.5-2.5v-.739l3.494-3.932c.326-.366.506-.839.506-1.329 0-1.379-1.121-2.5-2.5-2.5zm-3.701 0h-.562l.498-.25c.019.084.046.165.064.25zM16 13c4.029 0 7.5 2.4 9.082 5.841l-.891.445C22.775 16.171 19.645 14 16 14c-4.282 0-7.859 2.993-8.77 7H6.202c.929-4.559 4.969-8 9.798-8zm4.576 8c-.773-1.763-2.531-3-4.576-3s-3.802 1.237-4.576 3H10.35c.826-2.326 3.043-4 5.65-4a6.006 6.006 0 0 1 5.508 3.627l-.744.373h-.188zM16 20c-.883 0-1.67.391-2.22 1h-1.224c.694-1.189 1.97-2 3.444-2 1.473 0 2.75.811 3.443 2h-1.225A2.977 2.977 0 0 0 16 20zm0-4c-3.165 0-5.842 2.112-6.705 5H8.263c.892-3.444 4.017-6 7.737-6 3.246 0 6.043 1.948 7.295 4.734l-.893.446C21.314 17.723 18.855 16 16 16zm10 12v1.5a.5.5 0 0 1-.5.5h-19a.5.5 0 0 1-.5-.5V28l-4-4.5a.5.5 0 0 1 .5-.5h27a.5.5 0 0 1 .5.5L26 28zM7.977 11.712l.008.018h.002c.083.16.249.27.443.27a.503.503 0 0 0 .484-.628.034.034 0 0 0 0-.02c-.375-.882-.019-1.85.419-2.892.473-1.126.98-2.376.422-3.647a.49.49 0 0 0-.913.352l.003.009.005.012c.404.909.013 1.841-.428 2.893-.466 1.109-.982 2.338-.463 3.591l.018.042zM20.154 11.566c.004.006.006.012.008.018h.002a.501.501 0 0 0 .929-.357.024.024 0 0 0-.002-.02c-.373-.882-.018-1.85.42-2.892.473-1.126.98-2.376.422-3.647a.49.49 0 0 0-.914.346v.006l.004.009a.028.028 0 0 1 .004.012c.404.909.014 1.841-.428 2.893-.465 1.109-.98 2.339-.461 3.592l.016.04zM15.019 7.212l.008.018h.002a.501.501 0 0 0 .945-.232.472.472 0 0 0-.018-.125.034.034 0 0 0 0-.02c-.375-.882-.019-1.85.419-2.892.473-1.126.98-2.376.422-3.647a.49.49 0 0 0-.914.351l.003.009.004.012c.404.909.013 1.841-.428 2.893-.466 1.109-.982 2.339-.462 3.592l.019.041z"></path></g><!----></svg>