<svg data-v-423bf9ae="" xmlns="http://www.w3.org/2000/svg" viewBox="0 0 173.99999244258115 189" class="iconAboveSlogan"><!----><!----><!----><g data-v-423bf9ae="" id="024037d5-afeb-47fd-a978-4bc7fbd3add1" fill="white" transform="matrix(5.660377154786554,0,0,5.660377154786554,-3.96226761274481,86.52830318582996)"><path d="M0.70 10.43L0.84 12.67C1.46 13.24 2.62 13.51 3.60 13.51C6.08 13.51 7.06 12.10 7.06 10.67C7.06 9.02 5.94 8.23 4.30 7.63L3.85 7.46C2.91 7.11 2.13 6.51 2.13 5.67C2.13 4.65 2.74 3.89 3.92 3.89C5.12 3.89 5.80 4.58 6.02 5.99L6.45 5.99L6.45 4.02C5.98 3.64 5.03 3.40 4.07 3.40C2.37 3.40 0.85 4.26 0.85 6.10C0.85 7.57 2.03 8.34 3.50 8.86L3.75 8.96C4.37 9.20 5.70 9.84 5.70 11.09C5.70 12.29 4.93 13.02 3.68 13.02C2.37 13.02 1.50 12.00 1.15 10.43ZM7.52 13.30L10.93 13.30L10.93 12.89C9.94 12.82 9.88 12.80 9.88 12.08L9.88 9.74L9.91 9.74C10.49 10.65 11.48 11.87 12.21 12.61C12.73 13.13 13.27 13.30 13.72 13.33L14.77 13.37L14.77 12.98C14.35 12.87 14 12.66 13.57 12.22C12.70 11.37 11.61 10.04 11.07 9.28C11.00 9.18 10.98 9.11 11.12 8.96C11.79 8.19 12.24 7.78 12.71 7.43C13.19 7.08 13.54 6.92 14.35 6.83L14.35 6.44L12.91 6.44C12.43 6.44 12.31 6.51 12.03 6.85C11.62 7.34 10.23 9.07 9.91 9.55L9.88 9.55L9.88 3.00L9.79 2.91L7.59 3.26L7.59 3.61L8.12 3.67C8.48 3.71 8.57 3.78 8.57 4.31L8.57 12.08C8.57 12.80 8.53 12.82 7.52 12.89ZM15.86 4.14C15.86 4.65 16.21 5.00 16.72 5.00C17.22 5.00 17.57 4.65 17.57 4.14C17.57 3.64 17.22 3.29 16.72 3.29C16.21 3.29 15.86 3.64 15.86 4.14ZM15.02 13.30L18.44 13.30L18.44 12.89C17.44 12.82 17.39 12.80 17.39 12.08L17.39 6.36L17.29 6.27L15.09 6.62L15.09 6.97L15.62 7.04C15.99 7.10 16.07 7.17 16.07 7.67L16.07 12.08C16.07 12.80 16.03 12.82 15.02 12.89ZM19.33 9.93C19.33 12.14 20.29 13.47 22.57 13.47C24.12 13.47 24.92 12.60 25.30 11.49L24.88 11.27C24.49 12.08 23.95 12.75 22.85 12.75C21.11 12.75 20.76 11.07 20.79 9.62L24.82 9.62C25.12 9.62 25.38 9.55 25.38 9.09C25.38 8.26 25.12 6.27 22.55 6.27C20.37 6.27 19.33 7.83 19.33 9.93ZM20.80 9.09C20.80 8.51 21.01 6.76 22.47 6.76C23.77 6.76 23.93 8.09 23.93 8.64C23.93 8.90 23.84 9.09 23.45 9.09ZM26.50 10.96L26.64 12.80C27.15 13.24 28 13.47 28.83 13.47C30.49 13.47 31.44 12.59 31.44 11.40C31.44 10.16 30.69 9.60 29.25 9.16C28.67 8.97 27.75 8.68 27.75 7.90C27.75 7.17 28.31 6.76 29.01 6.76C30.00 6.76 30.48 7.53 30.58 8.39L30.98 8.39L30.98 6.75C30.52 6.41 29.81 6.27 29.18 6.27C27.66 6.27 26.63 6.99 26.63 8.32C26.63 9.48 27.58 10.00 28.74 10.35C29.37 10.54 30.25 10.86 30.25 11.82C30.25 12.53 29.69 12.98 28.95 12.98C27.82 12.98 27.19 12.15 26.91 10.96Z"></path></g><!----><g data-v-423bf9ae="" id="850baa39-d636-4746-b560-69c7dfb1434b" transform="matrix(1.2365525403904667,0,0,1.2365525403904667,25.209371531861137,-16.2192433453081)" stroke="none" fill="white"><path d="M35.871 23.762v-6.745a3.408 3.408 0 1 0-6.816 0v6.745a21.5 21.5 0 0 1 6.816 0zM49.906 32.412l4.779-4.779a3.408 3.408 0 0 0-4.82-4.82l-4.777 4.778a21.689 21.689 0 0 1 4.818 4.821zM15.02 32.412a21.757 21.757 0 0 1 4.82-4.82l-4.777-4.778a3.408 3.408 0 0 0-4.82 4.82l4.777 4.778zM4.445 48.443h6.746a21.519 21.519 0 0 1 0-6.816H4.445a3.408 3.408 0 1 0 0 6.816zM15.02 57.657l-4.777 4.78a3.405 3.405 0 0 0 0 4.819 3.392 3.392 0 0 0 2.41.999 3.4 3.4 0 0 0 2.41-.999l4.777-4.778a21.72 21.72 0 0 1-4.82-4.821zM17.736 45.035c0 1.175.15 2.312.412 3.408.367 1.543.975 2.99 1.785 4.302a14.776 14.776 0 0 0 4.818 4.82c.268.164.531.328.809.477a21.4 21.4 0 0 1 9.818-6.77A30.402 30.402 0 0 1 45.48 38.149a15.81 15.81 0 0 0-.486-.826 14.767 14.767 0 0 0-4.818-4.82 14.612 14.612 0 0 0-4.305-1.785c-1.096-.261-2.232-.413-3.408-.413s-2.312.152-3.408.413a14.634 14.634 0 0 0-4.303 1.785 14.767 14.767 0 0 0-4.818 4.82 14.595 14.595 0 0 0-1.785 4.302 14.644 14.644 0 0 0-.413 3.41zM83.811 49.99c-4.336-6.848-11.969-11.077-20.068-11.077-3.58 0-7.002.819-10.084 2.274a23.986 23.986 0 0 0-3.182 1.803 23.894 23.894 0 0 0-3.318 2.719c-3.111 3.041-5.418 6.93-6.488 11.359a14.666 14.666 0 0 0-6.975 2.632 14.643 14.643 0 0 0-5.143 6.518 14.734 14.734 0 0 0-1.043 5.464c0 8.111 6.6 14.71 14.711 14.71h38.4c.484 0 .963-.025 1.438-.062 9.479-.74 16.904-8.77 16.904-18.28 0-8.875-6.471-16.529-15.152-18.06zm-3.19 28.66h-38.4a6.976 6.976 0 0 1-6.969-6.969 6.947 6.947 0 0 1 3.502-6.041 6.946 6.946 0 0 1 2.191-.804 6.933 6.933 0 0 1 1.275-.124c1.281 0 2.543.361 3.646 1.045.213.131.451.195.688.195h.02a1.307 1.307 0 0 0 1.258-1.661 15.71 15.71 0 0 1-.088-1.64c0-.907.096-1.813.25-2.708.033-.19.051-.384.09-.572.732-3.508 2.617-6.547 5.193-8.779 2.84-2.46 6.518-3.939 10.465-3.939 4.676 0 9.109 2.05 12.164 5.625a16.029 16.029 0 0 1 2.672 4.395c.197.493.672.818 1.199.818.033 0 .066-.002.1-.004l.133-.008c.229-.017.457-.025.686-.025 1.453 0 2.908.322 4.27.938 3.801 1.717 6.256 5.508 6.256 9.658-.001 5.845-4.757 10.6-10.601 10.6z"></path></g><!----><g data-v-423bf9ae="" id="f0a438af-1a37-438e-959f-cda6355bb978" fill="white" transform="matrix(1.1764175062915507,0,0,1.1764175062915507,21.430687157739058,197.9199466733882)"><path d="M10.93 7.46L10.93 7.46L10.93 7.46Q10.93 8.13 10.63 8.73L10.63 8.73L10.63 8.73Q10.33 9.32 9.80 9.79L9.80 9.79L9.80 9.79Q9.27 10.26 8.55 10.58L8.55 10.58L8.55 10.58Q7.84 10.91 7 11.02L7 11.02L7 11.02Q7.21 11.65 7.51 12.31L7.51 12.31L7.51 12.31Q7.81 12.98 8.16 13.59L8.16 13.59L8.16 13.59Q8.51 14.21 8.89 14.73L8.89 14.73L8.89 14.73Q9.27 15.25 9.63 15.58L9.63 15.58L9.63 15.58Q9.56 15.72 9.43 15.86L9.43 15.86L9.43 15.86Q9.30 16.00 9.12 16.12L9.12 16.12L9.12 16.12Q8.95 16.24 8.76 16.32L8.76 16.32L8.76 16.32Q8.57 16.39 8.40 16.39L8.40 16.39L8.40 16.39Q8.09 16.39 7.81 16.10L7.81 16.10L7.81 16.10Q7.53 15.81 7.25 15.17L7.25 15.17L7.25 15.17Q6.96 14.53 6.64 13.52L6.64 13.52L6.64 13.52Q6.33 12.50 5.95 11.07L5.95 11.07L5.95 11.07Q5.80 11.07 5.64 11.07L5.64 11.07L5.64 11.07Q5.49 11.07 5.40 11.05L5.40 11.05L5.40 11.05Q5.31 10.99 5.19 10.85L5.19 10.85L5.19 10.85Q4.82 11.66 4.52 12.38L4.52 12.38L4.52 12.38Q4.23 13.09 4.00 13.76L4.00 13.76L4.00 13.76Q3.77 14.42 3.59 15.04L3.59 15.04L3.59 15.04Q3.42 15.67 3.29 16.31L3.29 16.31L3.29 16.31Q2.81 16.20 2.46 15.90L2.46 15.90L2.46 15.90Q2.11 15.61 1.81 15.08L1.81 15.08L1.81 15.08Q1.86 14.95 1.93 14.83L1.93 14.83L1.93 14.83Q1.99 14.71 2.09 14.50L2.09 14.50L2.09 14.50Q2.18 14.28 2.33 13.94L2.33 13.94L2.33 13.94Q2.48 13.61 2.72 13.05L2.72 13.05L2.72 13.05Q2.97 12.49 3.31 11.68L3.31 11.68L3.31 11.68Q3.65 10.86 4.14 9.70L4.14 9.70L4.14 9.70Q4.37 9.18 4.53 8.79L4.53 8.79L4.53 8.79Q4.69 8.40 4.82 8.04L4.82 8.04L4.82 8.04Q4.94 7.69 5.05 7.33L5.05 7.33L5.05 7.33Q5.15 6.97 5.26 6.51L5.26 6.51L5.26 6.51Q4.62 6.73 4.07 7.01L4.07 7.01L4.07 7.01Q3.51 7.28 3.15 7.59L3.15 7.59L3.15 7.59Q3.02 7.50 2.89 7.34L2.89 7.34L2.89 7.34Q2.76 7.17 2.65 6.96L2.65 6.96L2.65 6.96Q2.53 6.76 2.45 6.55L2.45 6.55L2.45 6.55Q2.37 6.34 2.35 6.17L2.35 6.17L2.35 6.17Q2.77 5.89 3.38 5.66L3.38 5.66L3.38 5.66Q3.99 5.42 4.68 5.24L4.68 5.24L4.68 5.24Q5.36 5.07 6.08 4.97L6.08 4.97L6.08 4.97Q6.79 4.87 7.41 4.87L7.41 4.87L7.41 4.87Q9.09 4.87 10.01 5.56L10.01 5.56L10.01 5.56Q10.93 6.26 10.93 7.46ZM7.35 6.02L7.52 6.29L7.52 6.29Q7.42 6.41 7.21 6.79L7.21 6.79L7.21 6.79Q7 7.17 6.73 7.69L6.73 7.69L6.73 7.69Q6.45 8.22 6.15 8.83L6.15 8.83L6.15 8.83Q5.85 9.45 5.57 10.05L5.57 10.05L5.57 10.05Q6.62 10.05 7.50 9.86L7.50 9.86L7.50 9.86Q8.39 9.66 9.03 9.30L9.03 9.30L9.03 9.30Q9.67 8.95 10.03 8.46L10.03 8.46L10.03 8.46Q10.39 7.98 10.39 7.39L10.39 7.39L10.39 7.39Q10.39 6.69 9.88 6.32L9.88 6.32L9.88 6.32Q9.38 5.95 8.33 5.95L8.33 5.95L8.33 5.95Q8.09 5.95 7.85 5.97L7.85 5.97L7.85 5.97Q7.62 5.99 7.35 6.02L7.35 6.02ZM23.76 9.21L23.76 9.21L23.76 9.21Q24.22 9.21 24.48 9.46L24.48 9.46L24.48 9.46Q24.74 9.72 24.74 10.16L24.74 10.16L24.74 10.16Q24.74 10.28 24.72 10.39L24.72 10.39L24.72 10.39Q24.70 10.51 24.67 10.60L24.67 10.60L24.67 10.60Q24.49 10.57 24.26 10.55L24.26 10.55L24.26 10.55Q24.04 10.53 23.73 10.53L23.73 10.53L23.73 10.53Q23.13 10.53 22.51 10.63L22.51 10.63L22.51 10.63Q21.90 10.74 21.34 10.81L21.34 10.81L21.34 10.81Q21.01 11.55 20.75 12.24L20.75 12.24L20.75 12.24Q20.48 12.94 20.29 13.51L20.29 13.51L20.29 13.51Q20.10 14.08 20.00 14.50L20.00 14.50L20.00 14.50Q19.89 14.92 19.88 15.13L19.88 15.13L19.88 15.13Q21.01 14.90 22.17 14.73L22.17 14.73L22.17 14.73Q23.32 14.56 24.60 14.48L24.60 14.48L24.60 14.48Q24.75 14.71 24.86 14.99L24.86 14.99L24.86 14.99Q24.96 15.27 24.96 15.60L24.96 15.60L24.96 15.60Q24.96 15.68 24.96 15.78L24.96 15.78L24.96 15.78Q24.96 15.88 24.93 15.97L24.93 15.97L24.93 15.97Q24.54 15.96 24.11 15.95L24.11 15.95L24.11 15.95Q23.67 15.95 22.97 15.95L22.97 15.95L22.97 15.95Q22.51 15.95 22.10 15.97L22.10 15.97L22.10 15.97Q21.69 15.99 21.27 16.03L21.27 16.03L21.27 16.03Q20.85 16.07 20.38 16.14L20.38 16.14L20.38 16.14Q19.91 16.21 19.32 16.31L19.32 16.31L19.32 16.31Q18.68 16.06 18.07 15.08L18.07 15.08L18.07 15.08Q18.31 14.57 18.74 13.54L18.74 13.54L18.74 13.54Q19.17 12.52 19.82 10.79L19.82 10.79L19.82 10.79Q19.19 10.60 19.00 10.09L19.00 10.09L19.00 10.09Q19.07 10.02 19.40 9.92L19.40 9.92L19.40 9.92Q19.74 9.81 20.23 9.70L20.23 9.70L20.23 9.70Q20.44 9.16 20.59 8.75L20.59 8.75L20.59 8.75Q20.73 8.34 20.85 7.99L20.85 7.99L20.85 7.99Q20.96 7.63 21.05 7.29L21.05 7.29L21.05 7.29Q21.14 6.94 21.22 6.54L21.22 6.54L21.22 6.54Q20.73 6.51 20.45 6.27L20.45 6.27L20.45 6.27Q20.17 6.02 20.17 5.63L20.17 5.63L20.17 5.63Q20.17 5.52 20.21 5.36L20.21 5.36L20.21 5.36Q20.24 5.21 20.29 5.10L20.29 5.10L20.29 5.10Q20.57 5.14 20.82 5.15L20.82 5.15L20.82 5.15Q21.08 5.17 21.50 5.17L21.50 5.17L21.50 5.17Q22.39 5.17 23.16 5.12L23.16 5.12L23.16 5.12Q23.93 5.07 24.55 5.01L24.55 5.01L24.55 5.01Q25.17 4.96 25.62 4.91L25.62 4.91L25.62 4.91Q26.07 4.86 26.31 4.86L26.31 4.86L26.31 4.86Q26.63 4.86 26.88 5.19L26.88 5.19L26.88 5.19Q27.13 5.53 27.26 6.15L27.26 6.15L27.26 6.15Q26.82 6.10 26.55 6.09L26.55 6.09L26.55 6.09Q26.28 6.08 26.07 6.08L26.07 6.08L26.07 6.08Q25.30 6.08 24.66 6.15L24.66 6.15L24.66 6.15Q24.02 6.23 23.44 6.31L23.44 6.31L23.44 6.31Q23.35 6.44 23.25 6.64L23.25 6.64L23.25 6.64Q23.14 6.83 22.97 7.18L22.97 7.18L22.97 7.18Q22.81 7.53 22.56 8.06L22.56 8.06L22.56 8.06Q22.32 8.60 21.97 9.39L21.97 9.39L21.97 9.39Q22.50 9.31 22.97 9.26L22.97 9.26L22.97 9.26Q23.44 9.21 23.76 9.21ZM34.13 16.24L34.13 16.24L34.13 16.24Q33.46 16.04 33.20 15.85L33.20 15.85L33.20 15.85Q32.94 15.65 32.94 15.36L32.94 15.36L32.94 15.36Q32.94 15.13 33.07 14.73L33.07 14.73L33.07 14.73Q33.19 14.32 33.44 13.77L33.44 13.77L33.44 13.77Q33.68 13.22 34.03 12.54L34.03 12.54L34.03 12.54Q34.37 11.87 34.80 11.10L34.80 11.10L34.80 11.10Q34.44 11.09 34.15 11.08L34.15 11.08L34.15 11.08Q33.87 11.07 33.68 11.07L33.68 11.07L33.68 11.07Q33.77 10.86 34.16 10.71L34.16 10.71L34.16 10.71Q34.55 10.56 35.20 10.44L35.20 10.44L35.20 10.44Q35.74 9.53 36.36 8.71L36.36 8.71L36.36 8.71Q36.99 7.88 37.62 7.19L37.62 7.19L37.62 7.19Q38.25 6.50 38.88 5.97L38.88 5.97L38.88 5.97Q39.51 5.45 40.08 5.14L40.08 5.14L40.08 5.14Q40.10 5.04 40.10 4.97L40.10 4.97L40.10 4.97Q40.11 4.90 40.11 4.87L40.11 4.87L40.11 4.87Q40.31 4.87 40.63 4.97L40.63 4.97L40.63 4.97Q40.96 5.07 41.28 5.21L41.28 5.21L41.28 5.21Q41.59 5.35 41.84 5.49L41.84 5.49L41.84 5.49Q42.08 5.64 42.11 5.74L42.11 5.74L42.11 5.74Q41.65 6.55 41.20 8.17L41.20 8.17L41.20 8.17Q40.75 9.79 40.46 12.04L40.46 12.04L40.46 12.04Q40.39 12.60 40.34 13.31L40.34 13.31L40.34 13.31Q40.29 14.03 40.29 14.91L40.29 14.91L40.29 14.91Q40.29 15.22 40.29 15.54L40.29 15.54L40.29 15.54Q40.29 15.86 40.32 16.21L40.32 16.21L40.32 16.21Q40.29 16.23 40.26 16.23L40.26 16.23L40.26 16.23Q40.24 16.23 40.15 16.23L40.15 16.23L40.15 16.23Q39.96 16.23 39.70 16.16L39.70 16.16L39.70 16.16Q39.44 16.10 39.19 16.01L39.19 16.01L39.19 16.01Q38.95 15.92 38.77 15.81L38.77 15.81L38.77 15.81Q38.60 15.69 38.56 15.61L38.56 15.61L38.56 15.61Q38.54 15.43 38.54 15.25L38.54 15.25L38.54 15.25Q38.54 15.08 38.54 14.88L38.54 14.88L38.54 14.88Q38.54 14.01 38.60 13.12L38.60 13.12L38.60 13.12Q38.67 12.22 38.82 11.27L38.82 11.27L38.82 11.27Q38.63 11.26 38.30 11.23L38.30 11.23L38.30 11.23Q37.98 11.21 37.58 11.20L37.58 11.20L37.58 11.20Q37.18 11.19 36.73 11.16L36.73 11.16L36.73 11.16Q36.27 11.14 35.84 11.13L35.84 11.13L35.84 11.13Q35.50 11.76 35.21 12.38L35.21 12.38L35.21 12.38Q34.92 13.01 34.71 13.64L34.71 13.64L34.71 13.64Q34.47 14.31 34.32 14.98L34.32 14.98L34.32 14.98Q34.17 15.65 34.13 16.24ZM39.54 7.83L39.54 7.83L39.54 7.83Q39.59 7.63 39.67 7.29L39.67 7.29L39.67 7.29Q39.75 6.94 39.82 6.57L39.82 6.57L39.82 6.57Q39.47 6.69 39.04 7.03L39.04 7.03L39.04 7.03Q38.61 7.36 38.16 7.86L38.16 7.86L38.16 7.86Q37.70 8.36 37.23 8.98L37.23 8.98L37.23 8.98Q36.76 9.60 36.33 10.30L36.33 10.30L36.33 10.30Q37.51 10.21 39.00 10.18L39.00 10.18L39.00 10.18Q39.12 9.59 39.25 9.01L39.25 9.01L39.25 9.01Q39.38 8.43 39.54 7.83ZM49.85 12.43L49.85 12.43L49.85 12.43Q49.85 11.45 50.08 10.51L50.08 10.51L50.08 10.51Q50.32 9.56 50.74 8.71L50.74 8.71L50.74 8.71Q51.16 7.87 51.74 7.16L51.74 7.16L51.74 7.16Q52.32 6.45 53.01 5.94L53.01 5.94L53.01 5.94Q53.70 5.42 54.49 5.13L54.49 5.13L54.49 5.13Q55.27 4.84 56.10 4.84L56.10 4.84L56.10 4.84Q57.06 4.84 57.60 5.25L57.60 5.25L57.60 5.25Q58.14 5.66 58.14 6.38L58.14 6.38L58.14 6.38Q58.14 6.66 58.06 6.96L58.06 6.96L58.06 6.96Q57.99 7.25 57.84 7.54L57.84 7.54L57.84 7.54Q57.69 7.83 57.50 8.09L57.50 8.09L57.50 8.09Q57.30 8.36 57.06 8.55L57.06 8.55L57.06 8.55Q56.70 8.50 56.43 8.22L56.43 8.22L56.43 8.22Q56.17 7.95 56.10 7.59L56.10 7.59L56.10 7.59Q56.59 7.18 56.87 6.74L56.87 6.74L56.87 6.74Q57.16 6.30 57.16 5.94L57.16 5.94L57.16 5.94Q57.16 5.32 56.39 5.32L56.39 5.32L56.39 5.32Q56.07 5.32 55.73 5.45L55.73 5.45L55.73 5.45Q55.38 5.59 55.03 5.82L55.03 5.82L55.03 5.82Q54.68 6.06 54.35 6.40L54.35 6.40L54.35 6.40Q54.03 6.73 53.75 7.14L53.75 7.14L53.75 7.14Q51.80 9.94 51.80 12.87L51.80 12.87L51.80 12.87Q51.80 13.90 52.12 14.53L52.12 14.53L52.12 14.53Q52.44 15.16 52.98 15.27L52.98 15.27L52.98 15.27Q53.58 15.13 54.50 14.50L54.50 14.50L54.50 14.50Q55.43 13.87 56.52 12.87L56.52 12.87L56.52 12.87Q56.66 13.01 56.69 13.16L56.69 13.16L56.69 13.16Q56.28 13.69 55.85 14.18L55.85 14.18L55.85 14.18Q55.41 14.67 54.98 15.08L54.98 15.08L54.98 15.08Q54.56 15.48 54.14 15.79L54.14 15.79L54.14 15.79Q53.73 16.10 53.38 16.27L53.38 16.27L53.38 16.27Q51.65 16.24 50.75 15.27L50.75 15.27L50.75 15.27Q49.85 14.31 49.85 12.43ZM70.20 14.36L70.20 14.36L70.20 14.36Q70.20 13.78 70.39 12.85L70.39 12.85L70.39 12.85Q70.59 11.93 70.91 10.88L70.91 10.88L70.91 10.88Q69.99 10.95 69.05 11.06L69.05 11.06L69.05 11.06Q68.12 11.17 67.44 11.19L67.44 11.19L67.44 11.19Q66.81 12.66 66.44 13.89L66.44 13.89L66.44 13.89Q66.07 15.13 65.86 16.31L65.86 16.31L65.86 16.31Q65.32 16.18 64.97 15.87L64.97 15.87L64.97 15.87Q64.62 15.55 64.33 15.08L64.33 15.08L64.33 15.08Q64.44 14.85 64.59 14.50L64.59 14.50L64.59 14.50Q64.74 14.15 64.94 13.66L64.94 13.66L64.94 13.66Q65.14 13.16 65.40 12.50L65.40 12.50L65.40 12.50Q65.66 11.83 66.00 10.95L66.00 10.95L66.00 10.95Q65.53 10.75 65.38 10.40L65.38 10.40L65.38 10.40Q65.45 10.35 65.69 10.28L65.69 10.28L65.69 10.28Q65.94 10.22 66.30 10.15L66.30 10.15L66.49 9.70L66.49 9.70Q66.78 8.95 66.97 8.43L66.97 8.43L66.97 8.43Q67.16 7.91 67.29 7.41L67.29 7.41L67.29 7.41Q67.42 6.92 67.54 6.31L67.54 6.31L67.54 6.31Q67.66 5.71 67.83 4.79L67.83 4.79L67.83 4.79Q68.42 4.90 68.90 5.31L68.90 5.31L68.90 5.31Q69.38 5.71 69.73 6.29L69.73 6.29L69.73 6.29Q69.61 6.45 69.43 6.79L69.43 6.79L69.43 6.79Q69.24 7.13 69.03 7.59L69.03 7.59L69.03 7.59Q68.81 8.06 68.56 8.64L68.56 8.64L68.56 8.64Q68.31 9.23 68.01 9.87L68.01 9.87L68.01 9.87Q68.88 9.76 69.77 9.66L69.77 9.66L69.77 9.66Q70.66 9.56 71.34 9.52L71.34 9.52L71.34 9.52Q71.60 8.79 71.87 8.10L71.87 8.10L71.87 8.10Q72.14 7.41 72.41 6.83L72.41 6.83L72.41 6.83Q72.67 6.26 72.92 5.82L72.92 5.82L72.92 5.82Q73.16 5.39 73.36 5.18L73.36 5.18L73.36 5.18Q73.50 5.19 73.73 5.29L73.73 5.29L73.73 5.29Q73.96 5.38 74.20 5.50L74.20 5.50L74.20 5.50Q74.44 5.63 74.63 5.78L74.63 5.78L74.63 5.78Q74.83 5.92 74.90 6.05L74.90 6.05L74.90 6.05Q74.65 6.29 74.40 6.66L74.40 6.66L74.40 6.66Q74.14 7.04 73.90 7.53L73.90 7.53L73.90 7.53Q73.65 8.02 73.42 8.60L73.42 8.60L73.42 8.60Q73.18 9.17 72.97 9.79L72.97 9.79L72.97 9.79Q73.25 10.04 73.25 10.42L73.25 10.42L73.25 10.42Q73.25 10.68 73.14 10.91L73.14 10.91L73.14 10.91Q73.01 10.88 72.88 10.87L72.88 10.87L72.88 10.87Q72.76 10.86 72.62 10.85L72.62 10.85L72.62 10.85Q72.38 11.61 72.18 12.35L72.18 12.35L72.18 12.35Q71.99 13.09 71.85 13.76L71.85 13.76L71.85 13.76Q71.72 14.43 71.64 14.99L71.64 14.99L71.64 14.99Q71.57 15.55 71.57 15.93L71.57 15.93L71.57 15.93Q71.57 16.07 71.57 16.16L71.57 16.16L71.57 16.16Q71.58 16.24 71.60 16.30L71.60 16.30L71.60 16.30Q71.29 16.28 71.15 16.19L71.15 16.19L71.15 16.19Q71.01 16.10 70.94 16.00L70.94 16.00L70.94 16.00Q70.87 15.89 70.81 15.79L70.81 15.79L70.81 15.79Q70.76 15.68 70.63 15.62L70.63 15.62L70.63 15.62Q70.53 15.58 70.45 15.43L70.45 15.43L70.45 15.43Q70.36 15.27 70.31 15.08L70.31 15.08L70.31 15.08Q70.25 14.88 70.22 14.69L70.22 14.69L70.22 14.69Q70.20 14.49 70.20 14.36ZM91.94 14.38L91.94 14.38L91.94 14.38Q91.94 13.87 92.10 13.07L92.10 13.07L92.10 13.07Q92.26 12.26 92.52 11.33L92.52 11.33L92.52 11.33Q92.78 10.40 93.11 9.43L93.11 9.43L93.11 9.43Q93.45 8.46 93.80 7.60L93.80 7.60L93.80 7.60Q94.15 6.75 94.49 6.10L94.49 6.10L94.49 6.10Q94.82 5.46 95.09 5.18L95.09 5.18L95.09 5.18Q95.23 5.19 95.46 5.29L95.46 5.29L95.46 5.29Q95.69 5.38 95.93 5.50L95.93 5.50L95.93 5.50Q96.17 5.63 96.36 5.78L96.36 5.78L96.36 5.78Q96.56 5.92 96.61 6.05L96.61 6.05L96.61 6.05Q96.21 6.41 95.81 7.15L95.81 7.15L95.81 7.15Q95.41 7.88 95.04 8.82L95.04 8.82L95.04 8.82Q94.67 9.76 94.35 10.80L94.35 10.80L94.35 10.80Q94.02 11.84 93.79 12.82L93.79 12.82L93.79 12.82Q93.55 13.80 93.41 14.64L93.41 14.64L93.41 14.64Q93.28 15.48 93.28 16.00L93.28 16.00L93.28 16.00Q93.28 16.24 93.32 16.30L93.32 16.30L93.32 16.30Q93.02 16.28 92.88 16.19L92.88 16.19L92.88 16.19Q92.74 16.10 92.66 16.00L92.66 16.00L92.66 16.00Q92.58 15.89 92.52 15.79L92.52 15.79L92.52 15.79Q92.46 15.68 92.33 15.62L92.33 15.62L92.33 15.62Q92.23 15.58 92.16 15.43L92.16 15.43L92.16 15.43Q92.09 15.27 92.04 15.09L92.04 15.09L92.04 15.09Q91.99 14.90 91.97 14.70L91.97 14.70L91.97 14.70Q91.94 14.50 91.94 14.38ZM105.70 6.69L105.70 6.69L105.70 6.69Q105.14 6.69 104.84 6.38L104.84 6.38L104.84 6.38Q104.54 6.06 104.54 5.61L104.54 5.61L104.54 5.61Q104.54 5.50 104.57 5.35L104.57 5.35L104.57 5.35Q104.61 5.19 104.66 5.08L104.66 5.08L104.66 5.08Q104.85 5.17 105.20 5.20L105.20 5.20L105.20 5.20Q105.56 5.24 106.04 5.24L106.04 5.24L106.04 5.24Q106.75 5.24 107.65 5.17L107.65 5.17L107.65 5.17Q108.56 5.11 109.38 5.04L109.38 5.04L109.38 5.04Q110.21 4.97 110.84 4.91L110.84 4.91L110.84 4.91Q111.47 4.84 111.65 4.84L111.65 4.84L111.65 4.84Q112.17 4.84 112.40 5.23L112.40 5.23L112.40 5.23Q112.63 5.61 112.74 6.26L112.74 6.26L112.74 6.26Q112.38 6.23 112.02 6.21L112.02 6.21L112.02 6.21Q111.66 6.19 111.41 6.19L111.41 6.19L111.41 6.19Q110.96 6.19 110.51 6.22L110.51 6.22L110.51 6.22Q110.05 6.24 109.59 6.30L109.59 6.30L109.59 6.30Q109.40 6.71 109.16 7.26L109.16 7.26L109.16 7.26Q108.92 7.81 108.69 8.41L108.69 8.41L108.69 8.41Q108.46 9.02 108.25 9.61L108.25 9.61L108.25 9.61Q108.04 10.21 107.88 10.68L107.88 10.68L107.88 10.68Q107.58 11.61 107.34 12.39L107.34 12.39L107.34 12.39Q107.11 13.17 106.94 13.85L106.94 13.85L106.94 13.85Q106.76 14.53 106.64 15.15L106.64 15.15L106.64 15.15Q106.51 15.76 106.41 16.35L106.41 16.35L106.41 16.35Q105.48 16.21 104.85 15.18L104.85 15.18L104.85 15.18Q104.96 14.74 105.12 14.23L105.12 14.23L105.12 14.23Q105.28 13.72 105.50 13.07L105.50 13.07L105.50 13.07Q105.71 12.42 106.01 11.59L106.01 11.59L106.01 11.59Q106.30 10.77 106.68 9.72L106.68 9.72L106.68 9.72Q106.82 9.32 106.97 8.90L106.97 8.90L106.97 8.90Q107.13 8.47 107.27 8.05L107.27 8.05L107.27 8.05Q107.42 7.63 107.54 7.24L107.54 7.24L107.54 7.24Q107.66 6.85 107.74 6.52L107.74 6.52L107.74 6.52Q107.16 6.59 106.63 6.64L106.63 6.64L106.63 6.64Q106.11 6.69 105.70 6.69Z"></path></g></svg>