<svg data-v-423bf9ae="" xmlns="http://www.w3.org/2000/svg" viewBox="0 0 173.99999244258115 60" class="font"><!----><!----><!----><g data-v-423bf9ae="" id="be104f5d-f5d6-4852-bfce-8f39088382ad" fill="white" transform="matrix(5.660377154786554,0,0,5.660377154786554,-3.96226761274481,-16.471698721518678)"><path d="M0.70 10.43L0.84 12.67C1.46 13.24 2.62 13.51 3.60 13.51C6.08 13.51 7.06 12.10 7.06 10.67C7.06 9.02 5.94 8.23 4.30 7.63L3.85 7.46C2.91 7.11 2.13 6.51 2.13 5.67C2.13 4.65 2.74 3.89 3.92 3.89C5.12 3.89 5.80 4.58 6.02 5.99L6.45 5.99L6.45 4.02C5.98 3.64 5.03 3.40 4.07 3.40C2.37 3.40 0.85 4.26 0.85 6.10C0.85 7.57 2.03 8.34 3.50 8.86L3.75 8.96C4.37 9.20 5.70 9.84 5.70 11.09C5.70 12.29 4.93 13.02 3.68 13.02C2.37 13.02 1.50 12.00 1.15 10.43ZM7.52 13.30L10.93 13.30L10.93 12.89C9.94 12.82 9.88 12.80 9.88 12.08L9.88 9.74L9.91 9.74C10.49 10.65 11.48 11.87 12.21 12.61C12.73 13.13 13.27 13.30 13.72 13.33L14.77 13.37L14.77 12.98C14.35 12.87 14 12.66 13.57 12.22C12.70 11.37 11.61 10.04 11.07 9.28C11.00 9.18 10.98 9.11 11.12 8.96C11.79 8.19 12.24 7.78 12.71 7.43C13.19 7.08 13.54 6.92 14.35 6.83L14.35 6.44L12.91 6.44C12.43 6.44 12.31 6.51 12.03 6.85C11.62 7.34 10.23 9.07 9.91 9.55L9.88 9.55L9.88 3.00L9.79 2.91L7.59 3.26L7.59 3.61L8.12 3.67C8.48 3.71 8.57 3.78 8.57 4.31L8.57 12.08C8.57 12.80 8.53 12.82 7.52 12.89ZM15.86 4.14C15.86 4.65 16.21 5.00 16.72 5.00C17.22 5.00 17.57 4.65 17.57 4.14C17.57 3.64 17.22 3.29 16.72 3.29C16.21 3.29 15.86 3.64 15.86 4.14ZM15.02 13.30L18.44 13.30L18.44 12.89C17.44 12.82 17.39 12.80 17.39 12.08L17.39 6.36L17.29 6.27L15.09 6.62L15.09 6.97L15.62 7.04C15.99 7.10 16.07 7.17 16.07 7.67L16.07 12.08C16.07 12.80 16.03 12.82 15.02 12.89ZM19.33 9.93C19.33 12.14 20.29 13.47 22.57 13.47C24.12 13.47 24.92 12.60 25.30 11.49L24.88 11.27C24.49 12.08 23.95 12.75 22.85 12.75C21.11 12.75 20.76 11.07 20.79 9.62L24.82 9.62C25.12 9.62 25.38 9.55 25.38 9.09C25.38 8.26 25.12 6.27 22.55 6.27C20.37 6.27 19.33 7.83 19.33 9.93ZM20.80 9.09C20.80 8.51 21.01 6.76 22.47 6.76C23.77 6.76 23.93 8.09 23.93 8.64C23.93 8.90 23.84 9.09 23.45 9.09ZM26.50 10.96L26.64 12.80C27.15 13.24 28 13.47 28.83 13.47C30.49 13.47 31.44 12.59 31.44 11.40C31.44 10.16 30.69 9.60 29.25 9.16C28.67 8.97 27.75 8.68 27.75 7.90C27.75 7.17 28.31 6.76 29.01 6.76C30.00 6.76 30.48 7.53 30.58 8.39L30.98 8.39L30.98 6.75C30.52 6.41 29.81 6.27 29.18 6.27C27.66 6.27 26.63 6.99 26.63 8.32C26.63 9.48 27.58 10.00 28.74 10.35C29.37 10.54 30.25 10.86 30.25 11.82C30.25 12.53 29.69 12.98 28.95 12.98C27.82 12.98 27.19 12.15 26.91 10.96Z"></path></g><!----><!----></svg>